# xmcd CD database file
#
# Track frame offsets:
#	150
#	27795
#	52172
#	82260
#	111533
#	143697
#	166308
#	191907
#	214634
#	238583
#
# Disc length: 3613 seconds
#
# Revision: 0
# Processed by: cddbd v1.5.2PL0 Copyright (c) Steve Scherf et al.
# Submitted via: CDex 1.51
#
DISCID=920e1b0a
DTITLE=Dan Gibson's Solitudes - Ocean Odyssey
DYEAR=2008
DGENRE=New Age
TTITLE0=Ocean Odyssey
TTITLE1=The Dolphins
TTITLE2=Song Of The Humpbacks
TTITLE3=Into The Abyss
TTITLE4=Oratory Of The Orcas
TTITLE5=Sea Spirits
TTITLE6=Angels Of The Deep
TTITLE7=In The Company Of Whales
TTITLE8=Shipwreck Discovery
TTITLE9=Coral Reef
EXTD=YEAR: 2008
EXTT0=
EXTT1=
EXTT2=
EXTT3=
EXTT4=
EXTT5=
EXTT6=
EXTT7=
EXTT8=
EXTT9=
PLAYORDER=
